<?xml version="1.0" encoding="UTF-8" standalone="no"?>
<!-- Created with Inkscape (http://www.inkscape.org/) -->

<svg
   xmlns:dc="http://purl.org/dc/elements/1.1/"
   xmlns:cc="http://creativecommons.org/ns#"
   xmlns:rdf="http://www.w3.org/1999/02/22-rdf-syntax-ns#"
   xmlns:svg="http://www.w3.org/2000/svg"
   xmlns="http://www.w3.org/2000/svg"
   xmlns:xlink="http://www.w3.org/1999/xlink"
   xmlns:sodipodi="http://sodipodi.sourceforge.net/DTD/sodipodi-0.dtd"
   xmlns:inkscape="http://www.inkscape.org/namespaces/inkscape"
   width="11.198318cm"
   height="8.0871286cm"
   viewBox="0 0 396.79081 286.5518"
   id="svg4300"
   version="1.1"
   inkscape:version="0.91 r"
   sodipodi:docname="docker.svg">
  <defs
     id="defs4302">
    <clipPath
       id="clipPath8">
      <path
         inkscape:connector-curvature="0"
         d="m 76,2 0,46 -22,0 0,23 -18.419263,0 c -0.07818,0.665694 -0.141485,1.332869 -0.205737,2 -1.151162,12.530963 1.036422,24.087546 6.0625,33.96875 L 43.125,110 c 1.011403,1.81678 2.191241,3.52297 3.4375,5.1875 1.244725,1.66248 1.685716,2.58262 2.46875,3.6875 C 62.319911,133.81083 82.129473,141 105,141 155.64836,141 198.63299,118.56201 217.65625,68.15625 231.15302,69.54122 244.09968,66.080358 250,54.5625 240.60137,49.138835 228.52163,50.877226 221.5625,54.375 L 240,2 168,48 145,48 145,2 Z"
         id="path10" />
    </clipPath>
    <clipPath
       id="clipPath4166">
      <path
         inkscape:connector-curvature="0"
         d="m 76,2 0,46 -22,0 0,23 -18.419263,0 c -0.07818,0.665694 -0.141485,1.332869 -0.205737,2 -1.151162,12.530963 1.036422,24.087546 6.0625,33.96875 L 43.125,110 c 1.011403,1.81678 2.191241,3.52297 3.4375,5.1875 1.244725,1.66248 1.685716,2.58262 2.46875,3.6875 C 62.319911,133.81083 82.129473,141 105,141 155.64836,141 198.63299,118.56201 217.65625,68.15625 231.15302,69.54122 244.09968,66.080358 250,54.5625 240.60137,49.138835 228.52163,50.877226 221.5625,54.375 L 240,2 168,48 145,48 145,2 Z"
         id="path4168" />
    </clipPath>
    <clipPath
       id="clipPath4170">
      <path
         inkscape:connector-curvature="0"
         d="m 76,2 0,46 -22,0 0,23 -18.419263,0 c -0.07818,0.665694 -0.141485,1.332869 -0.205737,2 -1.151162,12.530963 1.036422,24.087546 6.0625,33.96875 L 43.125,110 c 1.011403,1.81678 2.191241,3.52297 3.4375,5.1875 1.244725,1.66248 1.685716,2.58262 2.46875,3.6875 C 62.319911,133.81083 82.129473,141 105,141 155.64836,141 198.63299,118.56201 217.65625,68.15625 231.15302,69.54122 244.09968,66.080358 250,54.5625 240.60137,49.138835 228.52163,50.877226 221.5625,54.375 L 240,2 168,48 145,48 145,2 Z"
         id="path4172" />
    </clipPath>
    <clipPath
       id="clipPath4174">
      <path
         inkscape:connector-curvature="0"
         d="m 76,2 0,46 -22,0 0,23 -18.419263,0 c -0.07818,0.665694 -0.141485,1.332869 -0.205737,2 -1.151162,12.530963 1.036422,24.087546 6.0625,33.96875 L 43.125,110 c 1.011403,1.81678 2.191241,3.52297 3.4375,5.1875 1.244725,1.66248 1.685716,2.58262 2.46875,3.6875 C 62.319911,133.81083 82.129473,141 105,141 155.64836,141 198.63299,118.56201 217.65625,68.15625 231.15302,69.54122 244.09968,66.080358 250,54.5625 240.60137,49.138835 228.52163,50.877226 221.5625,54.375 L 240,2 168,48 145,48 145,2 Z"
         id="path4176" />
    </clipPath>
    <clipPath
       id="clipPath4178">
      <path
         inkscape:connector-curvature="0"
         d="m 76,2 0,46 -22,0 0,23 -18.419263,0 c -0.07818,0.665694 -0.141485,1.332869 -0.205737,2 -1.151162,12.530963 1.036422,24.087546 6.0625,33.96875 L 43.125,110 c 1.011403,1.81678 2.191241,3.52297 3.4375,5.1875 1.244725,1.66248 1.685716,2.58262 2.46875,3.6875 C 62.319911,133.81083 82.129473,141 105,141 155.64836,141 198.63299,118.56201 217.65625,68.15625 231.15302,69.54122 244.09968,66.080358 250,54.5625 240.60137,49.138835 228.52163,50.877226 221.5625,54.375 L 240,2 168,48 145,48 145,2 Z"
         id="path4180" />
    </clipPath>
  </defs>
  <sodipodi:namedview
     id="base"
     pagecolor="#ffffff"
     bordercolor="#666666"
     borderopacity="1.0"
     inkscape:pageopacity="0.0"
     inkscape:pageshadow="2"
     inkscape:zoom="1.4"
     inkscape:cx="152.86962"
     inkscape:cy="26.899639"
     inkscape:document-units="px"
     inkscape:current-layer="layer1"
     showgrid="false"
     fit-margin-top="2"
     fit-margin-left="2"
     fit-margin-right="2"
     fit-margin-bottom="2"
     inkscape:window-width="1920"
     inkscape:window-height="1028"
     inkscape:window-x="0"
     inkscape:window-y="0"
     inkscape:window-maximized="1"
     units="cm" />
  <metadata
     id="metadata4305">
    <rdf:RDF>
      <cc:Work
         rdf:about="">
        <dc:format>image/svg+xml</dc:format>
        <dc:type
           rdf:resource="http://purl.org/dc/dcmitype/StillImage" />
        <dc:title></dc:title>
      </cc:Work>
    </rdf:RDF>
  </metadata>
  <g
     inkscape:label="Layer 1"
     inkscape:groupmode="layer"
     id="layer1"
     transform="translate(-358.74745,-431.94344)">
    <path
       inkscape:connector-curvature="0"
       d="m 577.10119,548.54112 22.866,0 0,23.37473 11.56177,0 c 5.33905,0 10.83073,-0.95117 15.887,-2.66444 2.48448,-0.84244 5.27317,-2.01479 7.72392,-3.4892 -3.22785,-4.21436 -4.87579,-9.53574 -5.36101,-14.78106 -0.65874,-7.13426 0.78032,-16.42042 5.60897,-22.00422 l 2.40362,-2.78012 2.8642,2.3024 c 7.21138,5.79374 13.27612,13.88934 14.3451,23.11819 8.68312,-2.55411 18.87759,-1.95 26.53135,2.46735 l 3.14002,1.81182 -1.65276,3.2257 c -6.47289,12.63337 -20.00501,16.54674 -33.23507,15.85426 -19.79715,49.30838 -62.89781,72.65258 -115.15715,72.65258 -26.9989,0 -51.76985,-10.09272 -65.87555,-34.04693 -0.82702,-1.48798 -1.53524,-3.0439 -2.28633,-4.57212 -4.76813,-10.5442 -6.3518,-22.09526 -5.27746,-33.63668 l 0.32241,-3.45707 19.55294,0 0,-23.37473 22.866,0 0,-22.866 45.732,0 0,-22.866 27.43967,0 0,45.732"
       id="path14"
       style="fill:#394d54" />
    <g
       transform="translate(429.61359,502.80912)"
       clip-path="url(#clipPath8)"
       id="g16">
      <g
         id="g18">
        <g
           transform="translate(0,-22.866)"
           id="g20">
          <path
             inkscape:connector-curvature="0"
             d="m 123.85901,3.8110794 19.81751,0 0,19.8169706 -19.81751,0 z"
             id="path22"
             style="fill:#00acd3" />
          <path
             inkscape:connector-curvature="0"
             d="m 123.85901,26.676485 19.81751,0 0,19.818043 -19.81751,0 z"
             id="path24"
             style="fill:#20c2ef" />
          <path
             inkscape:connector-curvature="0"
             d="m 126.29235,21.976904 0,-16.5157492 m 2.97185,16.5157492 0,-16.5157492 m 3.00184,16.5157492 0,-16.5157492 m 3.00344,16.5157492 0,-16.5157492 m 3.00292,16.5157492 0,-16.5157492 m 2.97131,16.5157492 0,-16.5157492"
             id="path26"
             style="stroke:#394d54;stroke-width:1.55999994" />
          <use
             height="100%"
             width="100%"
             y="0"
             x="0"
             transform="translate(0,22.866)"
             id="use28"
             xlink:href="#path26" />
        </g>
        <use
           height="100%"
           width="100%"
           y="0"
           x="0"
           transform="matrix(1,0,0,-1,22.866,4.572651)"
           id="use30"
           xlink:href="#g20" />
      </g>
      <use
         height="100%"
         width="100%"
         y="0"
         x="0"
         transform="translate(-91.464,45.732)"
         id="use32"
         xlink:href="#g18" />
      <use
         height="100%"
         width="100%"
         y="0"
         x="0"
         transform="translate(-45.732,45.732)"
         id="use34"
         xlink:href="#g18" />
      <use
         height="100%"
         width="100%"
         y="0"
         x="0"
         transform="translate(0,45.732)"
         id="use36"
         xlink:href="#g18" />
    </g>
    <path
       transform="translate(429.61359,502.80912)"
       inkscape:connector-curvature="0"
       d="m 221.57014,54.379649 c 1.53332,-11.915247 -7.38383,-21.274779 -12.91407,-25.71836 -6.37269,7.367765 -7.36295,26.677556 2.63498,34.807431 -5.57952,4.956117 -17.33731,9.448435 -29.37574,9.448435 L 34,72.917155 C 32.829255,85.484184 34,146 34,146 l 217,0 -0.98657,-91.424 c -9.39863,-5.423665 -21.48419,-3.694326 -28.44332,-0.196552"
       clip-path="url(#clipPath8)"
       id="path38"
       style="fill:#17b5eb" />
    <path
       transform="translate(429.61359,502.80912)"
       inkscape:connector-curvature="0"
       d="m 34,89 0,57 217,0 0,-57"
       clip-path="url(#clipPath8)"
       id="path40"
       style="fill-opacity:0.17000002" />
    <path
       transform="translate(429.61359,502.80912)"
       inkscape:connector-curvature="0"
       d="M 111.23736,140.88997 C 97.697741,134.4648 90.265707,125.73081 86.130611,116.19562 L 45,118 l 21,28 45.23736,-5.11003"
       clip-path="url(#clipPath8)"
       id="path42"
       style="fill:#d4edf1" />
    <path
       transform="translate(429.61359,502.80912)"
       inkscape:connector-curvature="0"
       d="m 222.5,53.9375 0,0.03125 c -20.86119,26.889144 -50.78312,50.37872 -82.90625,62.71875 -28.65478,11.00767 -53.638381,11.06039 -70.875,2.21875 -1.85607,-1.04832 -3.675701,-2.21152 -5.5,-3.3125 C 50.582097,106.76175 43.464274,92.152308 44.0625,72.90625 L 34,72.90625 34,146 l 217,0 0,-96 -25,0 z"
       clip-path="url(#clipPath8)"
       id="path44"
       style="fill-opacity:0.08500001" />
    <path
       inkscape:connector-curvature="0"
       d="m 475.23859,619.84036 c 14.16515,0.77531 29.28245,0.91433 42.46875,-3.21875"
       id="path46"
       style="fill:none;stroke:#394d54;stroke-width:3.4000001;stroke-linecap:round" />
    <path
       inkscape:connector-curvature="0"
       d="m 531.78383,609.76837 c 0,3.01898 -2.44753,5.46651 -5.46651,5.46651 -3.01951,0 -5.46758,-2.44753 -5.46758,-5.46651 0,-3.01897 2.44807,-5.46758 5.46758,-5.46758 3.01898,0 5.46651,2.44861 5.46651,5.46758 z"
       id="path48"
       style="fill:#d4edf1" />
    <path
       inkscape:connector-curvature="0"
       d="m 527.73496,606.11689 c -0.47719,0.27582 -0.80013,0.79264 -0.80013,1.3839 0,0.88261 0.71551,1.59706 1.59812,1.59706 0.60465,0 1.13005,-0.3358 1.40158,-0.83174 0.19173,0.4622 0.29831,0.96991 0.29831,1.50226 0,2.16208 -1.75291,3.91498 -3.91552,3.91498 -2.16208,0 -3.91605,-1.7529 -3.91605,-3.91498 0,-2.16314 1.75397,-3.91658 3.91605,-3.91658 0.50022,0 0.97741,0.0943 1.41764,0.2651 z"
       id="path50"
       style="fill:#394d54" />
    <path
       inkscape:connector-curvature="0"
       d="m 429.61359,592.97146 254.32743,0 c -5.53774,-1.40479 -17.521,-3.30229 -15.54477,-10.55973 -10.06915,11.65175 -34.35274,8.17432 -40.4812,2.42878 -6.82471,9.89831 -46.55451,6.13597 -49.32553,-1.57509 -8.55565,10.04077 -35.06718,10.04077 -43.62336,0 -2.77209,7.71106 -42.50136,11.4734 -49.3266,1.57509 -6.12847,5.74554 -30.40991,9.22297 -40.48013,-2.42878 1.97623,7.25744 -10.00703,9.15494 -15.54584,10.55973"
       id="path52"
       style="fill:#394d54" />
  </g>
</svg>
