<?xml version="1.0" encoding="UTF-8" standalone="no"?>
<!-- Created with Inkscape (http://www.inkscape.org/) -->

<svg
   xmlns:dc="http://purl.org/dc/elements/1.1/"
   xmlns:cc="http://creativecommons.org/ns#"
   xmlns:rdf="http://www.w3.org/1999/02/22-rdf-syntax-ns#"
   xmlns:svg="http://www.w3.org/2000/svg"
   xmlns="http://www.w3.org/2000/svg"
   xmlns:xlink="http://www.w3.org/1999/xlink"
   xmlns:sodipodi="http://sodipodi.sourceforge.net/DTD/sodipodi-0.dtd"
   xmlns:inkscape="http://www.inkscape.org/namespaces/inkscape"
   width="138.18401"
   height="138.17599"
   viewBox="0 0 138.18401 138.176"
   id="svg4558"
   version="1.1"
   inkscape:version="0.91 r"
   sodipodi:docname="geoserver-mark.svg">
  <defs
     id="defs4560">
    <linearGradient
       id="SVGID_3_"
       gradientUnits="userSpaceOnUse"
       x1="-1.1152"
       y1="578.58588"
       x2="0.59909999"
       y2="578.58588"
       gradientTransform="matrix(62.1889,-26.3976,-26.3976,-62.1889,15385.853,36072.457)">
      <stop
         offset="0"
         style="stop-color:#0092C8"
         id="stop36" />
      <stop
         offset="1"
         style="stop-color:#00AFDD"
         id="stop38" />
    </linearGradient>
    <clipPath
       id="SVGID_2_">
      <use
         xlink:href="#SVGID_1_"
         overflow="visible"
         id="use33"
         style="overflow:visible"
         x="0"
         y="0"
         width="100%"
         height="100%" />
    </clipPath>
    <mask
       maskUnits="userSpaceOnUse"
       x="-31.977"
       y="-31.433"
       width="256.283"
       height="256.283"
       id="SVGID_4_">
      <g
         id="g50"
         style="filter:url(#Adobe_OpacityMaskFilter)">
        <rect
           x="32.070999"
           y="32.618"
           width="128.185"
           height="128.179"
           id="rect52" />
        <g
           enable-background="new    "
           id="g54">
          <path
             d="m 74.216,116.232 c 10.716,-7.749 -7.75,-15.5 -12.309,-17.778 -4.558,-2.279 0,-6.838 4.787,-8.89 4.789,-2.051 3.177,13.009 8.89,7.294 5.471,-5.47 -9.345,-11.852 3.305,-19.491 12.653,-7.635 -5.584,-5.582 -5.584,-12.65 0,-7.067 7.979,-7.977 7.979,-13.449 0,-3.58 -6.162,-4.171 -10.424,-4.154 l -31.189,31.19 c -0.694,0.693 -1.335,1.418 -1.933,2.168 0.148,5.851 7.16,6.814 11.175,6.814 5.016,0 7.751,7.751 2.737,12.765 -5.014,5.016 -5.387,13.595 -2.114,16.866 2.203,2.206 1.443,6.312 0.708,8.771 l 5.916,5.912 c 1.621,-5.203 8.685,-8.588 18.056,-15.368"
             id="path56"
             inkscape:connector-curvature="0"
             style="fill:#ffffff" />
          <path
             d="m 93.543,41.044 c 8.619,-1.109 0.641,5.976 4.737,7.768 3.704,1.618 13.599,-3.339 14.686,-10.062 -4.831,-4.083 -10.832,-6.132 -16.809,-6.13 -2.662,0 -5.327,0.412 -7.891,1.224 -0.473,3.449 -0.092,7.893 5.277,7.2"
             id="path58"
             inkscape:connector-curvature="0"
             style="fill:#ffffff" />
          <path
             d="m 114.599,89.498 c -1.434,-5.905 -15.203,-8.056 -21.801,-3.249 -9.726,7.087 -11.281,20.726 -3.728,21.498 7.554,0.773 14.438,8.093 10.643,15.337 -3.793,7.244 4.584,24.899 13.775,12.095 9.192,-12.803 4.615,-15.301 5.34,-22.352 0.72,-7.048 9.363,-15.99 7.246,-18.594 -2.122,-2.604 -10.352,-0.11 -11.475,-4.735"
             id="path60"
             inkscape:connector-curvature="0"
             style="fill:#ffffff" />
          <path
             d="m 83.665,157.613 c 3.879,2.117 8.191,3.182 12.494,3.182 l 0.012,0 c 6.651,0 13.338,-2.534 18.402,-7.597 l 3.215,-3.213 c -5.481,-1.025 -24.537,4.611 -34.123,7.628"
             id="path62"
             inkscape:connector-curvature="0"
             style="fill:#ffffff" />
          <path
             d="m 138.319,107.358 c -10.275,3.558 -17.391,15.021 -11.461,16.601 5.588,1.488 11.523,-2.986 15.498,1.456 l 10.302,-10.302 c -1.985,-4.05 -5.178,-10.925 -14.339,-7.755"
             id="path64"
             inkscape:connector-curvature="0"
             style="fill:#ffffff" />
          <path
             d="m 105.108,65.492 c 2.338,-0.313 0.499,-2.935 -0.828,-3.516 -1.327,-0.582 -5.552,-0.283 -3.988,1.63 1.182,1.446 2.481,2.201 4.816,1.886"
             id="path66"
             inkscape:connector-curvature="0"
             style="fill:#ffffff" />
          <path
             d="m 154.772,96.18 c -0.018,-1.368 -5.071,-2.765 -6.405,-2.646 -1.329,0.125 -1.774,2.366 1.97,3.283 2.824,0.69 4.452,0.73 4.435,-0.637"
             id="path68"
             inkscape:connector-curvature="0"
             style="fill:#ffffff" />
          <path
             d="m 110.593,54.962 c -0.564,4.5 3.939,6.19 1.688,8.44 -2.251,2.25 -15.5,7.035 -12.382,8.44 8.325,3.748 -5.78,3.222 0,9.003 2.871,2.87 11.933,-2.198 10.974,-5.628 -0.27,-0.97 2.503,-4.625 4.721,-2.698 1.917,1.666 7.844,3.504 7.844,13.321 0,5.226 4.501,10.323 9.103,9.075 3.82,-1.037 4.46,-5.837 2.088,-7.598 -3.03,-2.249 5.093,-4.964 13.362,3.959 3.815,4.115 10.121,-0.905 11.415,-1.175 l 0,-0.001 c -1.125,-4.326 -3.373,-8.424 -6.745,-11.798 L 121.155,46.8 c -5.802,0.603 -10.332,6.321 -10.562,8.162"
             id="path70"
             inkscape:connector-curvature="0"
             style="fill:#ffffff" />
        </g>
      </g>
    </mask>
    <filter
       id="Adobe_OpacityMaskFilter"
       filterUnits="userSpaceOnUse"
       x="-31.976999"
       y="-31.433001"
       width="256.28299"
       height="256.28299">
      <feColorMatrix
         type="matrix"
         values="1 0 0 0 0  0 1 0 0 0  0 0 1 0 0  0 0 0 1 0"
         id="feColorMatrix47" />
    </filter>
    <clipPath
       id="SVGID_6_">
      <use
         xlink:href="#SVGID_5_"
         overflow="visible"
         id="use80"
         style="overflow:visible"
         x="0"
         y="0"
         width="100%"
         height="100%" />
    </clipPath>
    <linearGradient
       id="SVGID_9_"
       gradientUnits="userSpaceOnUse"
       x1="-1.2285"
       y1="578.75201"
       x2="0.48590001"
       y2="578.75201"
       gradientTransform="matrix(43.2909,-44.829,-44.829,-43.2909,26057.109,25134.764)">
      <stop
         offset="0"
         style="stop-color:#8CC63F"
         id="stop91" />
      <stop
         offset="0.6137"
         style="stop-color:#C9E39F"
         id="stop93" />
      <stop
         offset="1"
         style="stop-color:#F1F6DE"
         id="stop95" />
    </linearGradient>
    <clipPath
       id="SVGID_8_">
      <use
         xlink:href="#SVGID_7_"
         overflow="visible"
         id="use88"
         style="overflow:visible"
         x="0"
         y="0"
         width="100%"
         height="100%" />
    </clipPath>
    <clipPath
       id="SVGID_11_">
      <use
         xlink:href="#SVGID_10_"
         overflow="visible"
         id="use107"
         style="overflow:visible"
         x="0"
         y="0"
         width="100%"
         height="100%" />
    </clipPath>
    <clipPath
       id="SVGID_13_">
      <use
         xlink:href="#SVGID_12_"
         overflow="visible"
         id="use115"
         style="overflow:visible"
         x="0"
         y="0"
         width="100%"
         height="100%" />
    </clipPath>
    <clipPath
       id="SVGID_15_">
      <use
         xlink:href="#SVGID_14_"
         overflow="visible"
         id="use127"
         style="overflow:visible"
         x="0"
         y="0"
         width="100%"
         height="100%" />
    </clipPath>
    <clipPath
       id="SVGID_17_">
      <use
         xlink:href="#SVGID_16_"
         overflow="visible"
         id="use135"
         style="overflow:visible"
         x="0"
         y="0"
         width="100%"
         height="100%" />
    </clipPath>
  </defs>
  <sodipodi:namedview
     id="base"
     pagecolor="#ffffff"
     bordercolor="#666666"
     borderopacity="1.0"
     inkscape:pageopacity="0.0"
     inkscape:pageshadow="2"
     inkscape:zoom="2.8"
     inkscape:cx="-23.696139"
     inkscape:cy="4.5613016"
     inkscape:document-units="px"
     inkscape:current-layer="layer1"
     showgrid="false"
     fit-margin-top="5"
     units="px"
     fit-margin-left="5"
     fit-margin-right="5"
     fit-margin-bottom="5"
     inkscape:window-width="1920"
     inkscape:window-height="1028"
     inkscape:window-x="0"
     inkscape:window-y="0"
     inkscape:window-maximized="1" />
  <metadata
     id="metadata4563">
    <rdf:RDF>
      <cc:Work
         rdf:about="">
        <dc:format>image/svg+xml</dc:format>
        <dc:type
           rdf:resource="http://purl.org/dc/dcmitype/StillImage" />
        <dc:title />
      </cc:Work>
    </rdf:RDF>
  </metadata>
  <g
     inkscape:label="Layer 1"
     inkscape:groupmode="layer"
     id="layer1"
     transform="translate(-270.908,-406.13135)">
    <g
       transform="translate(243.833,378.50935)"
       id="g4347">
      <g
         id="g27">
        <defs
           id="defs29">
          <path
             id="SVGID_1_"
             d="M 80,42.457 41.912,80.543 c -8.89,8.89 -8.89,23.442 0,32.337 L 80,150.965 c 8.892,8.894 23.45,8.895 32.342,0 l 38.086,-38.085 c 8.897,-8.896 8.894,-23.447 0.001,-32.337 L 112.341,42.457 c -4.447,-4.45 -10.309,-6.672 -16.169,-6.672 -5.862,0 -11.726,2.224 -16.172,6.672"
             inkscape:connector-curvature="0" />
        </defs>
        <clipPath
           id="clipPath4461">
          <use
             xlink:href="#SVGID_1_"
             overflow="visible"
             id="use4463"
             style="overflow:visible"
             x="0"
             y="0"
             width="100%"
             height="100%" />
        </clipPath>
        <linearGradient
           id="linearGradient4465"
           gradientUnits="userSpaceOnUse"
           x1="-1.1152"
           y1="578.58588"
           x2="0.59909999"
           y2="578.58588"
           gradientTransform="matrix(62.1889,-26.3976,-26.3976,-62.1889,15385.853,36072.457)">
          <stop
             offset="0"
             style="stop-color:#0092C8"
             id="stop4467" />
          <stop
             offset="1"
             style="stop-color:#00AFDD"
             id="stop4469" />
        </linearGradient>
        <polygon
           clip-path="url(#SVGID_2_)"
           points="140.042,-9.643 203.951,140.918 52.304,205.288 -11.605,54.728 "
           id="polygon40"
           style="fill:url(#SVGID_3_)" />
      </g>
      <g
         id="g42">
        <defs
           id="defs44" />
        <mask
           maskUnits="userSpaceOnUse"
           x="-31.977"
           y="-31.433"
           width="256.283"
           height="256.283"
           id="mask4478">
          <g
             id="g4480"
             style="filter:url(#Adobe_OpacityMaskFilter)">
            <rect
               x="32.070999"
               y="32.618"
               width="128.185"
               height="128.179"
               id="rect4482" />
            <g
               enable-background="new    "
               id="g4484">
              <path
                 d="m 74.216,116.232 c 10.716,-7.749 -7.75,-15.5 -12.309,-17.778 -4.558,-2.279 0,-6.838 4.787,-8.89 4.789,-2.051 3.177,13.009 8.89,7.294 5.471,-5.47 -9.345,-11.852 3.305,-19.491 12.653,-7.635 -5.584,-5.582 -5.584,-12.65 0,-7.067 7.979,-7.977 7.979,-13.449 0,-3.58 -6.162,-4.171 -10.424,-4.154 l -31.189,31.19 c -0.694,0.693 -1.335,1.418 -1.933,2.168 0.148,5.851 7.16,6.814 11.175,6.814 5.016,0 7.751,7.751 2.737,12.765 -5.014,5.016 -5.387,13.595 -2.114,16.866 2.203,2.206 1.443,6.312 0.708,8.771 l 5.916,5.912 c 1.621,-5.203 8.685,-8.588 18.056,-15.368"
                 id="path4486"
                 inkscape:connector-curvature="0"
                 style="fill:#ffffff" />
              <path
                 d="m 93.543,41.044 c 8.619,-1.109 0.641,5.976 4.737,7.768 3.704,1.618 13.599,-3.339 14.686,-10.062 -4.831,-4.083 -10.832,-6.132 -16.809,-6.13 -2.662,0 -5.327,0.412 -7.891,1.224 -0.473,3.449 -0.092,7.893 5.277,7.2"
                 id="path4488"
                 inkscape:connector-curvature="0"
                 style="fill:#ffffff" />
              <path
                 d="m 114.599,89.498 c -1.434,-5.905 -15.203,-8.056 -21.801,-3.249 -9.726,7.087 -11.281,20.726 -3.728,21.498 7.554,0.773 14.438,8.093 10.643,15.337 -3.793,7.244 4.584,24.899 13.775,12.095 9.192,-12.803 4.615,-15.301 5.34,-22.352 0.72,-7.048 9.363,-15.99 7.246,-18.594 -2.122,-2.604 -10.352,-0.11 -11.475,-4.735"
                 id="path4490"
                 inkscape:connector-curvature="0"
                 style="fill:#ffffff" />
              <path
                 d="m 83.665,157.613 c 3.879,2.117 8.191,3.182 12.494,3.182 l 0.012,0 c 6.651,0 13.338,-2.534 18.402,-7.597 l 3.215,-3.213 c -5.481,-1.025 -24.537,4.611 -34.123,7.628"
                 id="path4492"
                 inkscape:connector-curvature="0"
                 style="fill:#ffffff" />
              <path
                 d="m 138.319,107.358 c -10.275,3.558 -17.391,15.021 -11.461,16.601 5.588,1.488 11.523,-2.986 15.498,1.456 l 10.302,-10.302 c -1.985,-4.05 -5.178,-10.925 -14.339,-7.755"
                 id="path4494"
                 inkscape:connector-curvature="0"
                 style="fill:#ffffff" />
              <path
                 d="m 105.108,65.492 c 2.338,-0.313 0.499,-2.935 -0.828,-3.516 -1.327,-0.582 -5.552,-0.283 -3.988,1.63 1.182,1.446 2.481,2.201 4.816,1.886"
                 id="path4496"
                 inkscape:connector-curvature="0"
                 style="fill:#ffffff" />
              <path
                 d="m 154.772,96.18 c -0.018,-1.368 -5.071,-2.765 -6.405,-2.646 -1.329,0.125 -1.774,2.366 1.97,3.283 2.824,0.69 4.452,0.73 4.435,-0.637"
                 id="path4498"
                 inkscape:connector-curvature="0"
                 style="fill:#ffffff" />
              <path
                 d="m 110.593,54.962 c -0.564,4.5 3.939,6.19 1.688,8.44 -2.251,2.25 -15.5,7.035 -12.382,8.44 8.325,3.748 -5.78,3.222 0,9.003 2.871,2.87 11.933,-2.198 10.974,-5.628 -0.27,-0.97 2.503,-4.625 4.721,-2.698 1.917,1.666 7.844,3.504 7.844,13.321 0,5.226 4.501,10.323 9.103,9.075 3.82,-1.037 4.46,-5.837 2.088,-7.598 -3.03,-2.249 5.093,-4.964 13.362,3.959 3.815,4.115 10.121,-0.905 11.415,-1.175 l 0,-0.001 c -1.125,-4.326 -3.373,-8.424 -6.745,-11.798 L 121.155,46.8 c -5.802,0.603 -10.332,6.321 -10.562,8.162"
                 id="path4500"
                 inkscape:connector-curvature="0"
                 style="fill:#ffffff" />
            </g>
          </g>
        </mask>
        <g
           mask="url(#SVGID_4_)"
           id="g72">
          <g
             id="g74">
            <defs
               id="defs76">
              <rect
                 id="SVGID_5_"
                 x="32.075001"
                 y="32.622002"
                 width="128.17799"
                 height="128.17599" />
            </defs>
            <clipPath
               id="clipPath4506">
              <use
                 xlink:href="#SVGID_5_"
                 overflow="visible"
                 id="use4508"
                 style="overflow:visible"
                 x="0"
                 y="0"
                 width="100%"
                 height="100%" />
            </clipPath>
            <g
               clip-path="url(#SVGID_6_)"
               id="g82">
              <defs
                 id="defs84">
                <path
                   id="SVGID_7_"
                   d="m 96.157,32.621 c -6.656,-0.003 -13.34,2.536 -18.4,7.597 L 39.67,78.303 c -4.984,4.983 -7.527,11.542 -7.595,18.098 l 0,0.569 c 0.068,6.564 2.597,13.144 7.597,18.141 l 38.084,38.087 c 5.06,5.063 11.746,7.603 18.402,7.6 l 0.007,0 c 6.653,0 13.341,-2.535 18.405,-7.6 l 38.084,-38.087 c 5.068,-5.065 7.599,-11.756 7.598,-18.412 10e-4,-6.651 -2.533,-13.335 -7.592,-18.395 L 114.57,40.217 C 109.508,35.151 102.821,32.62 96.169,32.62 l -0.012,0 z"
                   inkscape:connector-curvature="0" />
              </defs>
              <clipPath
                 id="clipPath4513">
                <use
                   xlink:href="#SVGID_7_"
                   overflow="visible"
                   id="use4515"
                   style="overflow:visible"
                   x="0"
                   y="0"
                   width="100%"
                   height="100%" />
              </clipPath>
              <linearGradient
                 id="linearGradient4517"
                 gradientUnits="userSpaceOnUse"
                 x1="-1.2285"
                 y1="578.75201"
                 x2="0.48590001"
                 y2="578.75201"
                 gradientTransform="matrix(43.2909,-44.829,-44.829,-43.2909,26057.109,25134.764)">
                <stop
                   offset="0"
                   style="stop-color:#8CC63F"
                   id="stop4519" />
                <stop
                   offset="0.6137"
                   style="stop-color:#C9E39F"
                   id="stop4521" />
                <stop
                   offset="1"
                   style="stop-color:#F1F6DE"
                   id="stop4523" />
              </linearGradient>
              <polygon
                 clip-path="url(#SVGID_8_)"
                 points="93.928,-31.433 224.306,94.472 98.401,224.851 -31.977,98.946 "
                 id="polygon97"
                 style="fill:url(#SVGID_9_)" />
            </g>
          </g>
        </g>
        <g
           id="g99"
           style="opacity:0.25">
          <g
             id="g101">
            <defs
               id="defs103">
              <rect
                 id="SVGID_10_"
                 x="32.082001"
                 y="32.622002"
                 width="128.177"
                 height="128.17599" />
            </defs>
            <clipPath
               id="clipPath4530">
              <use
                 xlink:href="#SVGID_10_"
                 overflow="visible"
                 id="use4532"
                 style="overflow:visible"
                 x="0"
                 y="0"
                 width="100%"
                 height="100%" />
            </clipPath>
            <g
               clip-path="url(#SVGID_11_)"
               id="g109">
              <defs
                 id="defs111">
                <rect
                   id="SVGID_12_"
                   x="32.082001"
                   y="32.622002"
                   width="128.177"
                   height="128.17599" />
              </defs>
              <clipPath
                 id="clipPath4537">
                <use
                   xlink:href="#SVGID_12_"
                   overflow="visible"
                   id="use4539"
                   style="overflow:visible"
                   x="0"
                   y="0"
                   width="100%"
                   height="100%" />
              </clipPath>
              <path
                 clip-path="url(#SVGID_13_)"
                 d="M 96.166,160.795 C 89.509,160.799 82.822,158.259 77.765,153.2 L 39.681,115.113 C 34.606,110.043 32.079,103.346 32.082,96.684 32.079,90.033 34.62,83.356 39.677,78.306 L 77.765,40.22 c 5.057,-5.062 11.744,-7.6 18.399,-7.598 6.654,-0.003 13.349,2.531 18.416,7.598 l 38.085,38.086 c 5.06,5.058 7.6,11.743 7.594,18.396 0.005,6.654 -2.533,13.347 -7.594,18.411 L 114.58,153.2 c -5.065,5.066 -11.755,7.598 -18.408,7.595 l -0.006,0 z M 44.148,82.775 c -3.826,3.827 -5.741,8.853 -5.743,13.909 0.002,5.081 1.912,10.125 5.745,13.958 l 38.086,38.085 c 3.828,3.829 8.863,5.741 13.929,5.744 5.07,-0.003 10.106,-1.912 13.941,-5.744 l 38.084,-38.085 c 3.832,-3.833 5.741,-8.873 5.745,-13.941 -0.003,-5.067 -1.914,-10.098 -5.742,-13.927 L 110.106,44.69 c -3.835,-3.834 -8.873,-5.743 -13.943,-5.746 -5.067,10e-4 -10.1,1.917 -13.928,5.746 L 44.148,82.775 Z"
                 id="path117"
                 inkscape:connector-curvature="0"
                 style="fill:#0092c8" />
            </g>
          </g>
        </g>
        <g
           id="g119"
           style="opacity:0.15">
          <g
             id="g121">
            <defs
               id="defs123">
              <rect
                 id="SVGID_14_"
                 x="32.082001"
                 y="32.620998"
                 width="124.887"
                 height="87.036003" />
            </defs>
            <clipPath
               id="clipPath4546">
              <use
                 xlink:href="#SVGID_14_"
                 overflow="visible"
                 id="use4548"
                 style="overflow:visible"
                 x="0"
                 y="0"
                 width="100%"
                 height="100%" />
            </clipPath>
            <g
               clip-path="url(#SVGID_15_)"
               id="g129">
              <defs
                 id="defs131">
                <rect
                   id="SVGID_16_"
                   x="32.082001"
                   y="32.620998"
                   width="124.887"
                   height="87.036003" />
              </defs>
              <clipPath
                 id="clipPath4553">
                <use
                   xlink:href="#SVGID_16_"
                   overflow="visible"
                   id="use4555"
                   style="overflow:visible"
                   x="0"
                   y="0"
                   width="100%"
                   height="100%" />
              </clipPath>
              <path
                 clip-path="url(#SVGID_17_)"
                 d="m 156.97,84.014 c -1.14,-2.049 -2.57,-3.976 -4.304,-5.71 L 114.58,40.22 C 109.511,35.151 102.821,32.621 96.163,32.623 89.511,32.622 82.824,35.157 77.766,40.22 L 39.677,78.304 c -5.057,5.055 -7.597,11.73 -7.595,18.381 -0.002,6.657 2.526,13.358 7.598,18.428 l 4.54,4.544 C 52.275,107.132 91.137,54.294 156.97,84.014"
                 id="path137"
                 inkscape:connector-curvature="0"
                 style="fill:#ffffff" />
            </g>
          </g>
        </g>
      </g>
    </g>
  </g>
</svg>
